<?xml version="1.0" ?><!DOCTYPE svg  PUBLIC '-//W3C//DTD SVG 1.1//EN'  'http://www.w3.org/Graphics/SVG/1.1/DTD/svg11.dtd'><svg height="300px" id="Layer_1" style="enable-background:new 0 0 300 300;" version="1.1" viewBox="0 0 300 300" width="300px" xml:space="preserve" xmlns="http://www.w3.org/2000/svg" xmlns:xlink="http://www.w3.org/1999/xlink"><style type="text/css">
<![CDATA[
	.st0{fill:#B22D43;}
	.st1{fill:#EAE8E9;}
	.st2{fill:#1D1E21;}
	.st3{clip-path:url(#SVGID_2_);}
	.st4{clip-path:url(#SVGID_4_);}
	.st5{clip-path:url(#SVGID_6_);}
	.st6{fill:#2AC669;}
	.st7{opacity:0.3;}
	.st8{fill:#331606;}
	.st9{fill:#45995B;}
]]>
</style><g><circle class="st8" cx="152.96" cy="146.817" r="136"/></g><g><g><path class="st6" d="M145.857,133.504c0,0-39.877,5.608-50.833-1.317c0,0,0.003,11.644-6.268,14.599    c-6.271,2.954-11.615,2.689-11.615,2.689s3.582,4.784-3.5,13.509c-7.081,8.728-20.204,12.832-20.204,12.832    s12.089,3.974,9.487,16.651c-2.604,12.679-10.495,14.564-10.495,14.564s13.181-2.862,12.646,28.151    c0,0,11.989-19.197,17.092-4.021c0,0,9.883-31.871,26.761-11.641c0,0-1.362-33.688,25.346-25.957c0,0-12.031-23.012,16.551-18.699    C150.824,174.865,129.307,153.152,145.857,133.504z" id="SVGID_9_"/></g><g><defs><path d="M145.857,133.504c0,0-39.877,5.608-50.833-1.317c0,0,0.003,11.644-6.268,14.599     c-6.271,2.954-11.615,2.689-11.615,2.689s3.582,4.784-3.5,13.509c-7.081,8.728-20.204,12.832-20.204,12.832     s12.089,3.974,9.487,16.651c-2.604,12.679-10.495,14.564-10.495,14.564s13.181-2.862,12.646,28.151     c0,0,11.989-19.197,17.092-4.021c0,0,9.883-31.871,26.761-11.641c0,0-1.362-33.688,25.346-25.957     c0,0-12.031-23.012,16.551-18.699C150.824,174.865,129.307,153.152,145.857,133.504z" id="SVGID_1_"/></defs><clipPath id="SVGID_2_"><use style="overflow:visible;" xlink:href="#SVGID_1_"/></clipPath><g class="st3"><path class="st9" d="M61.386,245.814c0,0,35.854-103.452,89.407-115.867c53.553-12.417,7.584,120.96,7.584,120.96L61.386,245.814     z"/></g></g></g><g><g><path class="st6" d="M153.816,161.452c0,0,11.777-38.51,22.687-45.509c0,0-10.553-4.921-10.58-11.854    c-0.028-6.933,2.474-11.662,2.474-11.662s-5.851,1.225-10.765-8.885c-4.915-10.106-3.085-23.733-3.085-23.733    s-8.713,9.275-19.102,1.557c-10.389-7.718-8.763-15.669-8.763-15.669s-2.978,13.155-30.859-0.442c0,0,12.33,18.982-3.579,17.19    c0,0,24.703,22.43-0.765,29.172c0,0,31.103,13.01,12.807,33.943c0,0,25.939-1.174,9.947,22.904    C114.233,148.465,143.008,138.146,153.816,161.452z" id="SVGID_11_"/></g><g><defs><path d="M153.816,161.452c0,0,11.777-38.51,22.687-45.509c0,0-10.553-4.921-10.58-11.854     c-0.028-6.933,2.474-11.662,2.474-11.662s-5.851,1.225-10.765-8.885c-4.915-10.106-3.085-23.733-3.085-23.733     s-8.713,9.275-19.102,1.557c-10.389-7.718-8.763-15.669-8.763-15.669s-2.978,13.155-30.859-0.442c0,0,12.33,18.982-3.579,17.19     c0,0,24.703,22.43-0.765,29.172c0,0,31.103,13.01,12.807,33.943c0,0,25.939-1.174,9.947,22.904     C114.233,148.465,143.008,138.146,153.816,161.452z" id="SVGID_3_"/></defs><clipPath id="SVGID_4_"><use style="overflow:visible;" xlink:href="#SVGID_3_"/></clipPath><g class="st4"><path class="st9" d="M83.784,34.332c0,0,40.634,30.4,62.557,97.821c21.923,67.421-54-8.711-54-8.711L83.784,34.332z"/></g></g></g><g><g><path class="st6" d="M155.861,129.217c0,0,39.617-7.222,47.838-17.241c0,0,3.66,11.053,10.543,11.886    c6.882,0.833,11.871-1.102,11.871-1.102s-1.896,5.668,7.572,11.724c9.467,6.056,23.213,5.824,23.213,5.824    s-10.224,7.575-3.766,18.79c6.459,11.217,14.545,10.524,14.545,10.524s-13.412,1.429-3.148,30.701c0,0-17.418-14.452-17.489,1.557    c0,0-19.406-27.142-29.063-2.628c0,0-9.305-32.406-32.224-16.668c0,0,4.183-25.628-21.594-12.542    C164.159,170.042,177.754,142.662,155.861,129.217z" id="SVGID_13_"/></g><g><defs><path d="M155.861,129.217c0,0,39.617-7.222,47.838-17.241c0,0,3.66,11.053,10.543,11.886     c6.882,0.833,11.871-1.102,11.871-1.102s-1.896,5.668,7.572,11.724c9.467,6.056,23.213,5.824,23.213,5.824     s-10.224,7.575-3.766,18.79c6.459,11.217,14.545,10.524,14.545,10.524s-13.412,1.429-3.148,30.701     c0,0-17.418-14.452-17.489,1.557c0,0-19.406-27.142-29.063-2.628c0,0-9.305-32.406-32.224-16.668c0,0,4.183-25.628-21.594-12.542     C164.159,170.042,177.754,142.662,155.861,129.217z" id="SVGID_5_"/></defs><clipPath id="SVGID_6_"><use style="overflow:visible;" xlink:href="#SVGID_5_"/></clipPath><g class="st5"><path class="st9" d="M274.958,214.423c0,0-36.396-67.082-120.464-83.002c-84.069-15.921,105.27,117.867,105.27,117.867     L274.958,214.423z"/></g></g></g><g><ellipse class="st0" cx="128.805" cy="145.24" rx="17.285" ry="18.685" transform="matrix(-0.1633 -0.9866 0.9866 -0.1633 6.5496 296.0341)"/></g><g><ellipse class="st0" cx="147.547" cy="120.122" rx="17.284" ry="18.686" transform="matrix(-0.1634 -0.9866 0.9866 -0.1634 53.1477 285.3127)"/></g><g><ellipse class="st0" cx="158.747" cy="146.353" rx="17.283" ry="18.684" transform="matrix(0.135 -0.9908 0.9908 0.135 -7.6952 283.8919)"/></g><g class="st7"><path class="st1" d="M153.951,111.311c1.775,5.003-4.312,1.756-9.72,3.675c-5.406,1.921-8.084,8.28-9.86,3.278   c-1.775-5.001,1.492-9.7,6.898-11.619C146.678,104.725,152.175,106.311,153.951,111.311z"/></g><g class="st7"><path class="st1" d="M140.749,143.23c-1.274,5.152-4.565-0.911-10.136-2.289c-5.57-1.376-11.309,2.454-10.034-2.698   c1.273-5.151,6.589-7.271,12.159-5.895C138.309,133.726,142.023,138.08,140.749,143.23z"/></g><g class="st7"><path class="st1" d="M170.725,142.023c-1.066,5.199-4.598-0.729-10.219-1.883c-5.619-1.151-11.2,2.905-10.134-2.294   c1.065-5.199,6.294-7.53,11.915-6.377C167.907,132.625,171.793,136.826,170.725,142.023z"/></g><g><ellipse class="st2" cx="170.666" cy="153.277" rx="3.377" ry="2.46" transform="matrix(0.4096 -0.9123 0.9123 0.4096 -39.069 246.1844)"/></g><g><ellipse class="st2" cx="160.486" cy="119.273" rx="3.376" ry="2.46" transform="matrix(-0.0704 -0.9975 0.9975 -0.0704 52.8136 287.762)"/></g><g><ellipse class="st2" cx="116.138" cy="149.513" rx="3.376" ry="2.461" transform="matrix(-0.2417 -0.9704 0.9704 -0.2417 -0.8785 298.3388)"/></g></svg>